<svg width="336" height="79" viewBox="0 0 336 79" fill="none" xmlns="http://www.w3.org/2000/svg">
<path d="M7.02734 20V30H1.28516V1.5625H10.9727C13.7852 1.5625 16.0247 2.4349 17.6914 4.17969C19.3711 5.92448 20.2109 8.1901 20.2109 10.9766C20.2109 13.763 19.3841 15.9635 17.7305 17.5781C16.0768 19.1927 13.7852 20 10.8555 20H7.02734ZM7.02734 15.2148H10.9727C12.0664 15.2148 12.9128 14.8568 13.5117 14.1406C14.1107 13.4245 14.4102 12.3828 14.4102 11.0156C14.4102 9.59635 14.1042 8.47005 13.4922 7.63672C12.8802 6.79036 12.0599 6.36068 11.0312 6.34766H7.02734V15.2148ZM31.375 20.8008L34.1875 8.86719H40.0859L33.1328 33.1641C32.0911 36.7448 30.1315 38.5352 27.2539 38.5352C26.5898 38.5352 25.8346 38.4115 24.9883 38.1641V33.8477L25.6328 33.8672C26.4922 33.8672 27.1367 33.6979 27.5664 33.3594C28.0091 33.0339 28.3411 32.4609 28.5625 31.6406L28.9922 30.2148L22.8984 8.86719H28.8359L31.375 20.8008ZM49.375 3.67188V8.86719H52.207V13.0273H49.375V23.5156C49.375 24.349 49.4857 24.9219 49.707 25.2344C49.9414 25.5469 50.3841 25.7031 51.0352 25.7031C51.569 25.7031 52.0052 25.6576 52.3438 25.5664L52.3047 29.8633C51.3672 30.2148 50.3516 30.3906 49.2578 30.3906C45.6901 30.3906 43.8867 28.3464 43.8477 24.2578V13.0273H41.4062V8.86719H43.8477V3.67188H49.375ZM61.1445 10.7227C62.3424 9.22526 63.8138 8.47656 65.5586 8.47656C67.4857 8.47656 68.9505 9.15365 69.9531 10.5078C70.9557 11.862 71.4635 13.8802 71.4766 16.5625V30H65.9297V16.6211C65.9297 15.3841 65.7344 14.4922 65.3438 13.9453C64.9661 13.3854 64.3477 13.1055 63.4883 13.1055C62.4857 13.1055 61.7044 13.5677 61.1445 14.4922V30H55.6172V0H61.1445V10.7227ZM75.2969 18.75C75.2969 15.5469 76.0521 13.0339 77.5625 11.2109C79.0729 9.38802 81.1628 8.47656 83.832 8.47656C86.5273 8.47656 88.6302 9.38802 90.1406 11.2109C91.651 13.0339 92.4062 15.5599 92.4062 18.7891V20.1367C92.4062 23.3529 91.6576 25.8659 90.1602 27.6758C88.6628 29.4857 86.5664 30.3906 83.8711 30.3906C81.1628 30.3906 79.0534 29.4857 77.543 27.6758C76.0456 25.8529 75.2969 23.3268 75.2969 20.0977V18.75ZM80.8438 20.1367C80.8438 23.9128 81.8529 25.8008 83.8711 25.8008C85.7331 25.8008 86.7357 24.2253 86.8789 21.0742L86.8984 18.75C86.8984 16.8229 86.6315 15.3971 86.0977 14.4727C85.5638 13.5352 84.8086 13.0664 83.832 13.0664C82.8945 13.0664 82.1589 13.5352 81.625 14.4727C81.1042 15.3971 80.8438 16.8229 80.8438 18.75V20.1367ZM101.422 8.86719L101.578 10.957C102.828 9.30339 104.462 8.47656 106.48 8.47656C110.113 8.47656 111.982 11.0221 112.086 16.1133V30H106.539V16.5234C106.539 15.3255 106.357 14.4596 105.992 13.9258C105.641 13.3789 105.016 13.1055 104.117 13.1055C103.115 13.1055 102.333 13.6198 101.773 14.6484V30H96.2266V8.86719H101.422ZM115.809 18.7891C115.809 15.3255 116.395 12.7409 117.566 11.0352C118.738 9.32943 120.444 8.47656 122.684 8.47656C124.311 8.47656 125.665 9.17969 126.746 10.5859V0H132.312V30H127.293L127.039 27.8516C125.906 29.5443 124.448 30.3906 122.664 30.3906C120.451 30.3906 118.758 29.5443 117.586 27.8516C116.427 26.1589 115.835 23.6719 115.809 20.3906V18.7891ZM121.355 20.1758C121.355 22.2591 121.577 23.7174 122.02 24.5508C122.462 25.3711 123.211 25.7812 124.266 25.7812C125.359 25.7812 126.186 25.293 126.746 24.3164V14.668C126.199 13.6263 125.379 13.1055 124.285 13.1055C123.27 13.1055 122.527 13.5156 122.059 14.3359C121.59 15.1562 121.355 16.6146 121.355 18.7109V20.1758ZM146.934 30C146.777 29.6745 146.621 29.1276 146.465 28.3594C145.475 29.7135 144.134 30.3906 142.441 30.3906C140.671 30.3906 139.199 29.8047 138.027 28.6328C136.868 27.4609 136.289 25.944 136.289 24.082C136.289 21.8685 136.992 20.1562 138.398 18.9453C139.818 17.7344 141.855 17.1159 144.512 17.0898H146.191V15.3906C146.191 14.4401 146.029 13.7695 145.703 13.3789C145.378 12.9883 144.902 12.793 144.277 12.793C142.897 12.793 142.207 13.6003 142.207 15.2148H136.68C136.68 13.2617 137.409 11.6536 138.867 10.3906C140.339 9.11458 142.194 8.47656 144.434 8.47656C146.751 8.47656 148.542 9.08203 149.805 10.293C151.081 11.4909 151.719 13.2096 151.719 15.4492V25.3906C151.745 27.2135 152.005 28.6393 152.5 29.668V30H146.934ZM143.672 26.0547C144.284 26.0547 144.805 25.931 145.234 25.6836C145.664 25.4362 145.983 25.1432 146.191 24.8047V20.4102H144.863C143.926 20.4102 143.184 20.7096 142.637 21.3086C142.103 21.9076 141.836 22.7083 141.836 23.7109C141.836 25.2734 142.448 26.0547 143.672 26.0547ZM165.199 18.7891C165.199 15.3255 165.785 12.7409 166.957 11.0352C168.129 9.32943 169.835 8.47656 172.074 8.47656C173.702 8.47656 175.056 9.17969 176.137 10.5859V0H181.703V30H176.684L176.43 27.8516C175.297 29.5443 173.839 30.3906 172.055 30.3906C169.841 30.3906 168.148 29.5443 166.977 27.8516C165.818 26.1589 165.225 23.6719 165.199 20.3906V18.7891ZM170.746 20.1758C170.746 22.2591 170.967 23.7174 171.41 24.5508C171.853 25.3711 172.602 25.7812 173.656 25.7812C174.75 25.7812 175.577 25.293 176.137 24.3164V14.668C175.59 13.6263 174.77 13.1055 173.676 13.1055C172.66 13.1055 171.918 13.5156 171.449 14.3359C170.98 15.1562 170.746 16.6146 170.746 18.7109V20.1758ZM196.324 30C196.168 29.6745 196.012 29.1276 195.855 28.3594C194.866 29.7135 193.525 30.3906 191.832 30.3906C190.061 30.3906 188.59 29.8047 187.418 28.6328C186.259 27.4609 185.68 25.944 185.68 24.082C185.68 21.8685 186.383 20.1562 187.789 18.9453C189.208 17.7344 191.246 17.1159 193.902 17.0898H195.582V15.3906C195.582 14.4401 195.419 13.7695 195.094 13.3789C194.768 12.9883 194.293 12.793 193.668 12.793C192.288 12.793 191.598 13.6003 191.598 15.2148H186.07C186.07 13.2617 186.799 11.6536 188.258 10.3906C189.729 9.11458 191.585 8.47656 193.824 8.47656C196.142 8.47656 197.932 9.08203 199.195 10.293C200.471 11.4909 201.109 13.2096 201.109 15.4492V25.3906C201.135 27.2135 201.396 28.6393 201.891 29.668V30H196.324ZM193.062 26.0547C193.674 26.0547 194.195 25.931 194.625 25.6836C195.055 25.4362 195.374 25.1432 195.582 24.8047V20.4102H194.254C193.316 20.4102 192.574 20.7096 192.027 21.3086C191.493 21.9076 191.227 22.7083 191.227 23.7109C191.227 25.2734 191.839 26.0547 193.062 26.0547ZM214.969 24.3359C214.969 23.8672 214.741 23.4375 214.285 23.0469C213.842 22.6432 212.846 22.1029 211.297 21.4258C209.018 20.5013 207.449 19.5443 206.59 18.5547C205.743 17.5651 205.32 16.3346 205.32 14.8633C205.32 13.0143 205.984 11.4909 207.312 10.293C208.654 9.08203 210.424 8.47656 212.625 8.47656C214.943 8.47656 216.798 9.07552 218.191 10.2734C219.585 11.4714 220.281 13.0794 220.281 15.0977H214.754C214.754 13.3789 214.038 12.5195 212.605 12.5195C212.02 12.5195 211.538 12.7018 211.16 13.0664C210.783 13.431 210.594 13.9388 210.594 14.5898C210.594 15.0586 210.802 15.4753 211.219 15.8398C211.635 16.1914 212.618 16.6992 214.168 17.3633C216.421 18.1966 218.009 19.1276 218.934 20.1562C219.871 21.1719 220.34 22.4935 220.34 24.1211C220.34 26.0091 219.63 27.526 218.211 28.6719C216.792 29.8177 214.93 30.3906 212.625 30.3906C211.076 30.3906 209.708 30.0911 208.523 29.4922C207.339 28.8802 206.408 28.0339 205.73 26.9531C205.066 25.8724 204.734 24.707 204.734 23.457H209.988C210.014 24.4206 210.236 25.1432 210.652 25.625C211.082 26.1068 211.779 26.3477 212.742 26.3477C214.227 26.3477 214.969 25.6771 214.969 24.3359ZM230.703 3.67188V8.86719H233.535V13.0273H230.703V23.5156C230.703 24.349 230.814 24.9219 231.035 25.2344C231.27 25.5469 231.712 25.7031 232.363 25.7031C232.897 25.7031 233.333 25.6576 233.672 25.5664L233.633 29.8633C232.695 30.2148 231.68 30.3906 230.586 30.3906C227.018 30.3906 225.215 28.3464 225.176 24.2578V13.0273H222.734V8.86719H225.176V3.67188H230.703ZM247.473 28.0664C246.327 29.6159 244.79 30.3906 242.863 30.3906C240.923 30.3906 239.452 29.7266 238.449 28.3984C237.447 27.0573 236.945 25.1107 236.945 22.5586V8.86719H242.473V22.6953C242.499 24.7526 243.182 25.7812 244.523 25.7812C245.786 25.7812 246.698 25.2344 247.258 24.1406V8.86719H252.824V30H247.629L247.473 28.0664ZM267.699 14.1992L265.863 14.043C264.353 14.043 263.331 14.707 262.797 16.0352V30H257.25V8.86719H262.465L262.621 11.1523C263.493 9.36849 264.698 8.47656 266.234 8.47656C266.859 8.47656 267.367 8.5612 267.758 8.73047L267.699 14.1992ZM276.852 30H271.305V0H276.852V30ZM291.668 30C291.512 29.6745 291.355 29.1276 291.199 28.3594C290.21 29.7135 288.868 30.3906 287.176 30.3906C285.405 30.3906 283.934 29.8047 282.762 28.6328C281.603 27.4609 281.023 25.944 281.023 24.082C281.023 21.8685 281.727 20.1562 283.133 18.9453C284.552 17.7344 286.59 17.1159 289.246 17.0898H290.926V15.3906C290.926 14.4401 290.763 13.7695 290.438 13.3789C290.112 12.9883 289.637 12.793 289.012 12.793C287.632 12.793 286.941 13.6003 286.941 15.2148H281.414C281.414 13.2617 282.143 11.6536 283.602 10.3906C285.073 9.11458 286.928 8.47656 289.168 8.47656C291.486 8.47656 293.276 9.08203 294.539 10.293C295.815 11.4909 296.453 13.2096 296.453 15.4492V25.3906C296.479 27.2135 296.74 28.6393 297.234 29.668V30H291.668ZM288.406 26.0547C289.018 26.0547 289.539 25.931 289.969 25.6836C290.398 25.4362 290.717 25.1432 290.926 24.8047V20.4102H289.598C288.66 20.4102 287.918 20.7096 287.371 21.3086C286.837 21.9076 286.57 22.7083 286.57 23.7109C286.57 25.2734 287.182 26.0547 288.406 26.0547ZM310.312 24.3359C310.312 23.8672 310.085 23.4375 309.629 23.0469C309.186 22.6432 308.19 22.1029 306.641 21.4258C304.362 20.5013 302.793 19.5443 301.934 18.5547C301.087 17.5651 300.664 16.3346 300.664 14.8633C300.664 13.0143 301.328 11.4909 302.656 10.293C303.997 9.08203 305.768 8.47656 307.969 8.47656C310.286 8.47656 312.142 9.07552 313.535 10.2734C314.928 11.4714 315.625 13.0794 315.625 15.0977H310.098C310.098 13.3789 309.382 12.5195 307.949 12.5195C307.363 12.5195 306.882 12.7018 306.504 13.0664C306.126 13.431 305.938 13.9388 305.938 14.5898C305.938 15.0586 306.146 15.4753 306.562 15.8398C306.979 16.1914 307.962 16.6992 309.512 17.3633C311.764 18.1966 313.353 19.1276 314.277 20.1562C315.215 21.1719 315.684 22.4935 315.684 24.1211C315.684 26.0091 314.974 27.526 313.555 28.6719C312.135 29.8177 310.273 30.3906 307.969 30.3906C306.419 30.3906 305.052 30.0911 303.867 29.4922C302.682 28.8802 301.751 28.0339 301.074 26.9531C300.41 25.8724 300.078 24.707 300.078 23.457H305.332C305.358 24.4206 305.579 25.1432 305.996 25.625C306.426 26.1068 307.122 26.3477 308.086 26.3477C309.57 26.3477 310.312 25.6771 310.312 24.3359ZM325.012 10.7227C326.21 9.22526 327.681 8.47656 329.426 8.47656C331.353 8.47656 332.818 9.15365 333.82 10.5078C334.823 11.862 335.331 13.8802 335.344 16.5625V30H329.797V16.6211C329.797 15.3841 329.602 14.4922 329.211 13.9453C328.833 13.3854 328.215 13.1055 327.355 13.1055C326.353 13.1055 325.572 13.5677 325.012 14.4922V30H319.484V0H325.012V10.7227ZM11.0508 78C10.8945 77.6745 10.7383 77.1276 10.582 76.3594C9.59245 77.7135 8.2513 78.3906 6.55859 78.3906C4.78776 78.3906 3.31641 77.8047 2.14453 76.6328C0.985677 75.4609 0.40625 73.944 0.40625 72.082C0.40625 69.8685 1.10938 68.1562 2.51562 66.9453C3.9349 65.7344 5.97266 65.1159 8.62891 65.0898H10.3086V63.3906C10.3086 62.4401 10.1458 61.7695 9.82031 61.3789C9.49479 60.9883 9.01953 60.793 8.39453 60.793C7.01432 60.793 6.32422 61.6003 6.32422 63.2148H0.796875C0.796875 61.2617 1.52604 59.6536 2.98438 58.3906C4.45573 57.1146 6.3112 56.4766 8.55078 56.4766C10.8685 56.4766 12.6589 57.082 13.9219 58.293C15.1979 59.4909 15.8359 61.2096 15.8359 63.4492V73.3906C15.862 75.2135 16.1224 76.6393 16.6172 77.668V78H11.0508ZM7.78906 74.0547C8.40104 74.0547 8.92188 73.931 9.35156 73.6836C9.78125 73.4362 10.1003 73.1432 10.3086 72.8047V68.4102H8.98047C8.04297 68.4102 7.30078 68.7096 6.75391 69.3086C6.22005 69.9076 5.95312 70.7083 5.95312 71.7109C5.95312 73.2734 6.5651 74.0547 7.78906 74.0547ZM29.6953 72.3359C29.6953 71.8672 29.4674 71.4375 29.0117 71.0469C28.569 70.6432 27.5729 70.1029 26.0234 69.4258C23.7448 68.5013 22.1758 67.5443 21.3164 66.5547C20.4701 65.5651 20.0469 64.3346 20.0469 62.8633C20.0469 61.0143 20.7109 59.4909 22.0391 58.293C23.3802 57.082 25.151 56.4766 27.3516 56.4766C29.6693 56.4766 31.5247 57.0755 32.918 58.2734C34.3112 59.4714 35.0078 61.0794 35.0078 63.0977H29.4805C29.4805 61.3789 28.7643 60.5195 27.332 60.5195C26.7461 60.5195 26.2643 60.7018 25.8867 61.0664C25.5091 61.431 25.3203 61.9388 25.3203 62.5898C25.3203 63.0586 25.5286 63.4753 25.9453 63.8398C26.362 64.1914 27.3451 64.6992 28.8945 65.3633C31.1471 66.1966 32.7357 67.1276 33.6602 68.1562C34.5977 69.1719 35.0664 70.4935 35.0664 72.1211C35.0664 74.0091 34.3568 75.526 32.9375 76.6719C31.5182 77.8177 29.6562 78.3906 27.3516 78.3906C25.8021 78.3906 24.4349 78.0911 23.25 77.4922C22.0651 76.8802 21.1341 76.0339 20.457 74.9531C19.793 73.8724 19.4609 72.707 19.4609 71.457H24.7148C24.7409 72.4206 24.9622 73.1432 25.3789 73.625C25.8086 74.1068 26.5052 74.3477 27.4688 74.3477C28.9531 74.3477 29.6953 73.6771 29.6953 72.3359ZM38.3594 66.75C38.3594 63.5469 39.1146 61.0339 40.625 59.2109C42.1354 57.388 44.2253 56.4766 46.8945 56.4766C49.5898 56.4766 51.6927 57.388 53.2031 59.2109C54.7135 61.0339 55.4688 63.5599 55.4688 66.7891V68.1367C55.4688 71.3529 54.7201 73.8659 53.2227 75.6758C51.7253 77.4857 49.6289 78.3906 46.9336 78.3906C44.2253 78.3906 42.1159 77.4857 40.6055 75.6758C39.1081 73.8529 38.3594 71.3268 38.3594 68.0977V66.75ZM43.9062 68.1367C43.9062 71.9128 44.9154 73.8008 46.9336 73.8008C48.7956 73.8008 49.7982 72.2253 49.9414 69.0742L49.9609 66.75C49.9609 64.8229 49.694 63.3971 49.1602 62.4727C48.6263 61.5352 47.8711 61.0664 46.8945 61.0664C45.957 61.0664 45.2214 61.5352 44.6875 62.4727C44.1667 63.3971 43.9062 64.8229 43.9062 66.75V68.1367ZM68.7812 72.3359C68.7812 71.8672 68.5534 71.4375 68.0977 71.0469C67.6549 70.6432 66.6589 70.1029 65.1094 69.4258C62.8307 68.5013 61.2617 67.5443 60.4023 66.5547C59.556 65.5651 59.1328 64.3346 59.1328 62.8633C59.1328 61.0143 59.7969 59.4909 61.125 58.293C62.4661 57.082 64.237 56.4766 66.4375 56.4766C68.7552 56.4766 70.6107 57.0755 72.0039 58.2734C73.3971 59.4714 74.0938 61.0794 74.0938 63.0977H68.5664C68.5664 61.3789 67.8503 60.5195 66.418 60.5195C65.832 60.5195 65.3503 60.7018 64.9727 61.0664C64.5951 61.431 64.4062 61.9388 64.4062 62.5898C64.4062 63.0586 64.6146 63.4753 65.0312 63.8398C65.4479 64.1914 66.431 64.6992 67.9805 65.3633C70.2331 66.1966 71.8216 67.1276 72.7461 68.1562C73.6836 69.1719 74.1523 70.4935 74.1523 72.1211C74.1523 74.0091 73.4427 75.526 72.0234 76.6719C70.6042 77.8177 68.7422 78.3906 66.4375 78.3906C64.888 78.3906 63.5208 78.0911 62.3359 77.4922C61.151 76.8802 60.2201 76.0339 59.543 74.9531C58.8789 73.8724 58.5469 72.707 58.5469 71.457H63.8008C63.8268 72.4206 64.0482 73.1432 64.4648 73.625C64.8945 74.1068 65.5911 74.3477 66.5547 74.3477C68.0391 74.3477 68.7812 73.6771 68.7812 72.3359ZM83.8906 78H78.3438V48H83.8906V78ZM98.707 78C98.5508 77.6745 98.3945 77.1276 98.2383 76.3594C97.2487 77.7135 95.9076 78.3906 94.2148 78.3906C92.444 78.3906 90.9727 77.8047 89.8008 76.6328C88.6419 75.4609 88.0625 73.944 88.0625 72.082C88.0625 69.8685 88.7656 68.1562 90.1719 66.9453C91.5911 65.7344 93.6289 65.1159 96.2852 65.0898H97.9648V63.3906C97.9648 62.4401 97.8021 61.7695 97.4766 61.3789C97.151 60.9883 96.6758 60.793 96.0508 60.793C94.6706 60.793 93.9805 61.6003 93.9805 63.2148H88.4531C88.4531 61.2617 89.1823 59.6536 90.6406 58.3906C92.112 57.1146 93.9674 56.4766 96.207 56.4766C98.5247 56.4766 100.315 57.082 101.578 58.293C102.854 59.4909 103.492 61.2096 103.492 63.4492V73.3906C103.518 75.2135 103.779 76.6393 104.273 77.668V78H98.707ZM95.4453 74.0547C96.0573 74.0547 96.5781 73.931 97.0078 73.6836C97.4375 73.4362 97.7565 73.1432 97.9648 72.8047V68.4102H96.6367C95.6992 68.4102 94.957 68.7096 94.4102 69.3086C93.8763 69.9076 93.6094 70.7083 93.6094 71.7109C93.6094 73.2734 94.2214 74.0547 95.4453 74.0547ZM118.426 62.1992L116.59 62.043C115.079 62.043 114.057 62.707 113.523 64.0352V78H107.977V56.8672H113.191L113.348 59.1523C114.22 57.3685 115.424 56.4766 116.961 56.4766C117.586 56.4766 118.094 56.5612 118.484 56.7305L118.426 62.1992ZM127.578 78H122.031V56.8672H127.578V78ZM121.777 51.3984C121.777 50.5391 122.051 49.8359 122.598 49.2891C123.145 48.7422 123.874 48.4688 124.785 48.4688C125.697 48.4688 126.426 48.7422 126.973 49.2891C127.52 49.8359 127.793 50.5391 127.793 51.3984C127.793 52.2448 127.52 52.9479 126.973 53.5078C126.439 54.0677 125.71 54.3477 124.785 54.3477C123.861 54.3477 123.125 54.0677 122.578 53.5078C122.044 52.9479 121.777 52.2448 121.777 51.3984Z" fill="white"/>
</svg>
